<?xml version="1.0" standalone="no"?>
<!DOCTYPE svg PUBLIC "-//W3C//DTD SVG 20010904//EN"
 "http://www.w3.org/TR/2001/REC-SVG-20010904/DTD/svg10.dtd">
<svg version="1.0" xmlns="http://www.w3.org/2000/svg"
 width="512.000000pt" height="512.000000pt" viewBox="0 0 512.000000 512.000000"
 preserveAspectRatio="xMidYMid meet">
<metadata>
Created by potrace 1.14, written by Peter Selinger 2001-2017
</metadata>
<g transform="translate(0.000000,512.000000) scale(0.100000,-0.100000)"
fill="#000000" stroke="none">
<path d="M2355 5114 c-474 -50 -860 -185 -1217 -425 -611 -411 -1004 -1039
-1115 -1779 -22 -145 -24 -529 -5 -670 82 -584 328 -1084 733 -1489 397 -396
890 -643 1451 -727 164 -24 477 -29 640 -10 417 48 791 184 1132 410 154 103
262 191 396 326 417 417 668 937 736 1528 22 186 14 507 -15 677 -57 323 -153
601 -292 848 -396 703 -1086 1178 -1879 1292 -110 16 -476 28 -565 19z m307
-1217 c206 -54 372 -150 524 -301 91 -91 187 -223 232 -322 l24 -50 76 -18
c155 -36 295 -118 408 -239 127 -136 198 -304 211 -494 21 -316 -154 -620
-437 -762 -181 -91 -106 -86 -1330 -86 l-1075 0 -85 23 c-286 76 -502 285
-580 562 -85 302 26 644 273 839 101 81 208 128 369 165 22 5 35 20 59 69 166
333 471 563 835 631 126 24 373 16 496 -17z"/>
</g>
</svg>
